<svg width="114" height="69" viewBox="0 0 114 69" fill="none" xmlns="http://www.w3.org/2000/svg">
<path d="M9.31086 16.0729C13.7012 16.0729 16.8402 18.9618 16.8402 23.2526V34.6382H13.0649V23.1889C13.0649 20.9585 11.4954 19.3866 9.33207 19.3866C7.14751 19.3866 5.57802 20.9585 5.57802 23.1889V34.6382H1.82397V23.1251C1.82397 18.9405 4.92053 16.0729 9.31086 16.0729Z" fill="#D8DADC"/>
<path d="M30.0747 35.1905C24.4967 35.1905 20.4881 31.112 20.4881 25.6317C20.4881 20.0876 24.4967 16.0729 29.9899 16.0729C35.2498 16.0729 38.8342 20.1301 38.8342 25.6317C38.8342 26.0565 38.7918 26.6513 38.7281 26.9911H24.4119C24.8997 29.965 27.0206 31.813 30.0959 31.813C32.3229 31.813 33.9348 31.0058 35.2074 29.3702L37.3919 31.6431C35.6528 34.0222 33.1289 35.1905 30.0747 35.1905ZM24.4331 24.2722H35.1226C34.8468 21.4046 32.8319 19.3866 29.9263 19.3866C26.9782 19.3866 24.9209 21.3196 24.4331 24.2722Z" fill="#D8DADC"/>
<path d="M52.6838 35.1904C49.7994 35.1904 47.2542 33.9796 46.1089 31.8342H45.9817C46.0241 32.2803 46.0453 32.8538 46.0453 33.6398V34.6169H42.5882V8.46826H46.3422V17.411C46.3422 18.3457 46.2998 18.813 46.2362 19.1954H46.3422C47.3815 17.3473 49.9054 16.0941 52.5778 16.0941C57.9861 16.0941 61.6978 20.0663 61.6978 25.6529C61.6978 31.2394 58.0498 35.1904 52.6838 35.1904ZM57.9013 25.6104C57.9013 21.978 55.3986 19.4078 52.0051 19.4078C48.5904 19.4078 46.1938 21.9993 46.1938 25.6104C46.1938 29.2002 48.5904 31.813 52.0051 31.813C55.3986 31.813 57.9013 29.2002 57.9013 25.6104Z" fill="#D8DADC"/>
<path d="M72.8539 35.1904C68.506 35.1904 65.367 32.2166 65.367 27.9257V16.6251H69.1211V28.0319C69.1211 30.2199 70.6905 31.7917 72.8115 31.7917C74.9748 31.7917 76.5019 30.2199 76.5019 28.0319V16.6251H80.2559V28.0319C80.2772 32.2591 77.1806 35.1904 72.8539 35.1904Z" fill="#D8DADC"/>
<path d="M85.0705 28.3506V8.46826H88.8245V27.947C88.8245 30.326 90.2244 31.4731 92.3877 31.4731C92.8119 31.4731 93.1512 31.4094 93.533 31.3244V34.6381C93.1088 34.7868 92.4513 34.8718 91.7514 34.8718C87.5308 34.893 85.0705 32.5777 85.0705 28.3506Z" fill="#D8DADC"/>
<path d="M104.095 16.0729C107.298 16.0729 109.631 17.6023 110.5 19.4291H110.606C110.564 19.0467 110.543 18.6006 110.543 17.6448V16.6252H114V34.6382H110.543V33.3424C110.543 32.5352 110.585 32.0254 110.606 31.5369H110.5C109.567 33.6611 107.086 35.1905 103.947 35.1905C98.5171 35.1905 94.8904 31.1758 94.8904 25.6317C94.8904 20.0876 98.7292 16.0729 104.095 16.0729ZM110.416 25.6104C110.416 21.9781 107.976 19.4078 104.562 19.4078C101.211 19.4078 98.708 21.9993 98.708 25.6104C98.708 29.2003 101.211 31.813 104.562 31.813C107.976 31.813 110.416 29.2003 110.416 25.6104Z" fill="#D8DADC"/>
<path d="M6.23554 63.2508L0 45.259H4.05098L8.6746 59.9583H8.82307L13.4679 45.259H17.4765L11.2833 63.272H6.23554V63.2508Z" fill="#D8DADC"/>
<path d="M28.5052 63.8244C22.9272 63.8244 18.9186 59.746 18.9186 54.2656C18.9186 48.7215 22.9272 44.7068 28.4204 44.7068C33.6803 44.7068 37.2647 48.764 37.2647 54.2656C37.2647 54.6904 37.2223 55.2852 37.1586 55.6251H22.8636C23.3514 58.5989 25.4723 60.4469 28.5477 60.4469C30.7746 60.4469 32.3865 59.6397 33.6591 58.0041L35.8437 60.277C34.0833 62.6348 31.5806 63.8244 28.5052 63.8244ZM22.8636 52.8849H33.5531C33.2773 50.0172 31.2625 47.9993 28.3568 47.9993C25.4087 47.9993 23.3514 49.9323 22.8636 52.8849Z" fill="#D8DADC"/>
<path d="M41.2945 57.0057V48.5302H39.3432V45.259H41.2945V40.5858H45.0485V45.259H50.266V48.5302H45.0485V56.6658C45.0485 59.0662 46.3423 60.192 48.4632 60.192C48.951 60.192 49.3964 60.1282 49.8206 59.9583V63.272C49.3328 63.4844 48.6329 63.5906 47.8693 63.5906C43.6487 63.5694 41.2945 61.2965 41.2945 57.0057Z" fill="#D8DADC"/>
<path d="M58.6437 52.1839L60.9343 53.3097C63.1189 54.3505 64.7944 55.71 64.7944 58.4715C64.7944 61.5727 62.3553 63.8031 58.4104 63.8031C54.6564 63.8031 52.5566 61.6152 51.9203 59.1724L54.8048 57.5581C55.123 59.0662 56.3743 60.6381 58.4952 60.6381C60.0011 60.6381 61.0403 59.8734 61.0403 58.4502C61.0403 57.4306 60.3404 56.7721 58.6649 56.0074L56.6076 55.0303C54.423 54.0107 52.7051 52.7574 52.7051 49.8048C52.7051 47.0221 55.1866 44.7068 58.5164 44.7068C61.8675 44.7068 63.8188 46.5123 64.752 48.764L62.0796 50.2934C61.4857 48.8914 60.298 47.8081 58.6013 47.8081C57.2015 47.8081 56.2258 48.5728 56.2258 49.7623C56.2683 50.8244 56.9682 51.4192 58.6437 52.1839Z" fill="#D8DADC"/>
</svg>
